<svg xmlns="http://www.w3.org/2000/svg" viewBox="0 0 460.15 164.66"><defs><style>.cls-1{fill:red;}</style></defs><title>Recurso 1</title><g id="Capa_2" data-name="Capa 2"><g id="Capa_1-2" data-name="Capa 1"><g id="Enmascarar_grupo_1" data-name="Enmascarar grupo 1"><g id="real"><g id="Grupo_2" data-name="Grupo 2"><path id="Trazado_5" data-name="Trazado 5" class="cls-1" d="M460.15,164.66C388.42,126.23,309.89,115,228.92,114,128.05,112.77,25.61,141.49,0,163.77Q229.33,90.06,460.15,164.66Z"/><path id="Trazado_6" data-name="Trazado 6" class="cls-1" d="M358.69,59.75c.1-.24.22-.48.33-.71A143.57,143.57,0,0,0,342.68,52c-29.2-8.7-58.1-18.8-87.85-25.18-50.41-10.82-101.56-14.75-152.59-3C72.67,30.54,46.85,43.31,30.55,69.67,26.63,76,26,81.79,30.18,87.8c9.24,13.35,17.52,26.81,8.59,42.6l96.06-22.14c-.08-.63-.16-1.28-.25-1.92L55,115.7c-2.57-6.63-4.16-13.63-7.77-19.49C38.45,82,38,81.24,49.36,68.67a95.85,95.85,0,0,1,14-12.6c22.16-16.44,48.15-23.19,75.36-26.33,50.95-5.87,101,.31,150.51,11.57C312.56,46.62,335.53,53.55,358.69,59.75Z"/><path id="Trazado_7" data-name="Trazado 7" class="cls-1" d="M400.72,51.7c-32-25.38-67.82-42-105.14-48.75-25.27-4.52-50.31-4.7-74.4,5.57-3.18,1.35-6.09,3.27-9,4.87l101.4,21c.27-.57.53-1.14.8-1.72L256.15,10C311.72,5.8,356.93,25.87,400.72,51.7Z"/><path id="Trazado_8" data-name="Trazado 8" class="cls-1" d="M341.11,98.92C335.85,75.81,316.48,61.66,293.62,63c-23.21,1.34-43.82,18.08-45.55,37,16.38,2.87,16.64,2.74,26.93-8.2a44.36,44.36,0,0,1,7.06-6.17C301.25,72.33,321.62,76.67,341.11,98.92Z"/><path id="Trazado_9" data-name="Trazado 9" class="cls-1" d="M183.73,34.91l-1.23-2.57C153.05,52.41,123.68,72.79,84,58.27c4.24,11.6,13.25,14,23,13.91,23.42-.27,45.21-4.56,61-23.62C172.37,43.32,178.45,39.43,183.73,34.91Z"/><path id="Trazado_10" data-name="Trazado 10" class="cls-1" d="M180.84,43.3c16.49,20.29,52.21,23.32,68.17,8.88-13.3-1.47-27.47,3.69-42.81-6l19.5-7.61c-.2-.84-.4-1.68-.6-2.5Z"/><path id="Trazado_11" data-name="Trazado 11" class="cls-1" d="M79.41,103c13.14-2.74,26-6.31,39.15-7.88a226.49,226.49,0,0,1,40.49-1.35c13,.81,25.77,4,38.65,6.13-41.52-14.58-69.13-16.5-101.42-8.61C88.59,93.16,80.92,95.25,79.41,103Z"/><path id="Trazado_12" data-name="Trazado 12" class="cls-1" d="M418,89.52c-.8,1-1.58,2.1-2.38,3.14,4,3.36,8.33,6.43,12,10.12,9.42,9.48,21.47,18.28,12,34-.11.18.7.87,1.25,1.51,2.44-1.93,4.88-3.84,7.3-5.78,9.64-7.7,10.72-10.87,1.9-18.9C440.22,104.66,428.72,97.47,418,89.52Z"/><path id="Trazado_13" data-name="Trazado 13" class="cls-1" d="M419.35,128.68c-1.9-10.3-6.76-15.18-14.58-16.86-9.44-2-17.54.42-24.79,10.75,5.19-.24,9.26.71,11.8-.76C402.25,115.76,410.5,118.3,419.35,128.68Z"/><path id="Trazado_14" data-name="Trazado 14" class="cls-1" d="M59,68.27,67.38,71,58.06,84.57C73.09,82.48,79.59,75,76,62,71.11,63.77,66.34,65.56,59,68.27Z"/><path id="Trazado_15" data-name="Trazado 15" class="cls-1" d="M460.15,164.66Q229.57,89.78,0,163.77c25.61-22.28,128-51,228.92-49.74C309.89,115,388.42,126.23,460.15,164.66Z"/><path id="Trazado_16" data-name="Trazado 16" class="cls-1" d="M358.69,59.74c-23.16-6.19-46.13-13.13-69.5-18.45C239.69,30,189.63,23.85,138.67,29.73c-27.2,3.13-53.2,9.88-75.35,26.33a96.35,96.35,0,0,0-14,12.59C38,81.23,38.44,82,47.19,96.2c3.61,5.85,5.21,12.86,7.77,19.49l79.62-9.36c.08.63.16,1.28.25,1.92L38.76,130.38c8.93-15.77.64-29.25-8.58-42.59-4.17-6-3.56-11.79.37-18.13C46.84,43.3,72.67,30.53,102.23,23.74c51-11.7,102.19-7.77,152.59,3.05,29.76,6.38,58.66,16.47,87.85,25.17A145.38,145.38,0,0,1,359,59C358.9,59.28,358.79,59.51,358.69,59.74Z"/><path id="Trazado_17" data-name="Trazado 17" class="cls-1" d="M400.72,51.7C356.94,25.87,311.72,5.8,256.14,10l58.2,22.64-.79,1.71-101.41-21c2.94-1.6,5.85-3.51,9-4.87C245.26-1.73,270.3-1.56,295.57,3,332.89,9.72,368.7,26.32,400.72,51.7Z"/><path id="Trazado_18" data-name="Trazado 18" class="cls-1" d="M341.11,98.92c-19.49-22.25-39.86-26.59-59.05-13.33A43.93,43.93,0,0,0,275,91.76c-10.3,10.94-10.55,11.07-26.93,8.2,1.72-18.88,22.34-35.62,45.55-37C316.48,61.67,335.84,75.81,341.11,98.92Z"/><path id="Trazado_19" data-name="Trazado 19" class="cls-1" d="M183.73,34.91c-5.27,4.51-11.36,8.41-15.69,13.65-15.79,19-37.6,23.34-61,23.62-9.76.11-18.77-2.32-23-13.91,39.65,14.52,69-5.86,98.47-25.92C182.91,33.19,183.33,34.06,183.73,34.91Z"/><path id="Trazado_20" data-name="Trazado 20" class="cls-1" d="M180.84,43.3l44.26-7.21c.2.84.4,1.68.6,2.5L206.2,46.2c15.34,9.67,29.51,4.52,42.81,6C233,66.62,197.33,63.58,180.84,43.3Z"/><path id="Trazado_21" data-name="Trazado 21" class="cls-1" d="M79.41,103c1.51-7.72,9.19-9.82,16.88-11.7,32.28-7.89,59.9-6,101.41,8.6-12.87-2.13-25.68-5.32-38.64-6.13a226.46,226.46,0,0,0-40.49,1.35C105.43,96.65,92.55,100.24,79.41,103Z"/><path id="Trazado_22" data-name="Trazado 22" class="cls-1" d="M418,89.52c10.75,8,22.25,15.14,32,24,8.82,8,7.74,11.21-1.9,18.9-2.42,1.94-4.86,3.85-7.3,5.78-.54-.63-1.35-1.33-1.25-1.51,9.51-15.69-2.55-24.49-12-34-3.66-3.68-8-6.76-12-10.12Z"/><path id="Trazado_23" data-name="Trazado 23" class="cls-1" d="M419.35,128.68c-8.85-10.38-17.1-12.92-27.56-6.87-2.54,1.48-6.61.52-11.8.76,7.26-10.32,15.35-12.78,24.79-10.75C412.58,113.5,417.45,118.37,419.35,128.68Z"/><path id="Trazado_24" data-name="Trazado 24" class="cls-1" d="M59,68.27,76,62c3.56,13-2.93,20.54-18,22.63L67.38,71C65.53,70.41,63.68,69.81,59,68.27Z"/></g></g></g></g></g></svg>